<svg width="12" height="12" viewBox="0 0 12 12" fill="none" xmlns="http://www.w3.org/2000/svg">
<path fill-rule="evenodd" clip-rule="evenodd" d="M4.37188 5.50311V2.80848L8.62808 6.01154L4.37188 9.22183V6.56354H0.122925V5.50311H4.37188ZM2.25104 11.8729C1.66513 11.8729 1.16398 11.6672 0.747558 11.2556C0.331132 10.844 0.122925 10.3428 0.122925 9.75212V8.68442H1.19061V9.75212C1.19545 10.0523 1.29956 10.3041 1.50293 10.5075C1.70629 10.7108 1.95566 10.8125 2.25104 10.8125H9.68856C9.98394 10.8125 10.2333 10.7108 10.4367 10.5075C10.64 10.3041 10.7442 10.0523 10.7489 9.75212V2.31457C10.7489 2.01921 10.6448 1.76742 10.4367 1.55921C10.2284 1.35099 9.97905 1.24689 9.68856 1.24689H2.25104C1.95566 1.24689 1.70387 1.35099 1.49566 1.55921C1.28745 1.76742 1.18576 2.01921 1.19061 2.31457V3.375H0.122925V2.31457C0.122925 1.72868 0.331132 1.22752 0.747558 0.811092C1.16398 0.394677 1.66513 0.186459 2.25104 0.186459H9.68856C10.2744 0.186459 10.7756 0.394677 11.192 0.811092C11.6084 1.22752 11.8142 1.72868 11.8094 2.31457V9.75212C11.8094 10.3428 11.6012 10.844 11.1848 11.2556C10.7684 11.6672 10.2696 11.8729 9.68856 11.8729H2.25104Z" fill="black"/>
</svg>
